<?xml version="1.0" encoding="UTF-8" standalone="no"?>
<svg
   xmlns:dc="http://purl.org/dc/elements/1.1/"
   xmlns:cc="http://creativecommons.org/ns#"
   xmlns:rdf="http://www.w3.org/1999/02/22-rdf-syntax-ns#"
   xmlns:svg="http://www.w3.org/2000/svg"
   xmlns="http://www.w3.org/2000/svg"
   xmlns:sodipodi="http://sodipodi.sourceforge.net/DTD/sodipodi-0.dtd"
   xmlns:inkscape="http://www.inkscape.org/namespaces/inkscape"
   version="1.1"
   x="0px"
   y="0px"
   viewBox="0 0 50 72.125061"
   enable-background="new 0 0 2000 2000"
   xml:space="preserve"
   id="svg8"
   sodipodi:docname="celltower.svg"
   width="50"
   height="72.125061"
   inkscape:version="1.0.2 (e86c870879, 2021-01-15, custom)"><metadata
     id="metadata14"><rdf:RDF><cc:Work
         rdf:about=""><dc:format>image/svg+xml</dc:format><dc:type
           rdf:resource="http://purl.org/dc/dcmitype/StillImage" /><dc:title></dc:title></cc:Work></rdf:RDF></metadata><defs
     id="defs12" /><sodipodi:namedview
     pagecolor="#ffffff"
     bordercolor="#666666"
     borderopacity="1"
     objecttolerance="10"
     gridtolerance="10"
     guidetolerance="10"
     inkscape:pageopacity="0"
     inkscape:pageshadow="2"
     inkscape:window-width="1920"
     inkscape:window-height="1171"
     id="namedview10"
     showgrid="false"
     fit-margin-top="0"
     fit-margin-left="0"
     fit-margin-right="0"
     fit-margin-bottom="0"
     inkscape:zoom="0.2932"
     inkscape:cx="432.99762"
     inkscape:cy="876.44617"
     inkscape:window-x="0"
     inkscape:window-y="0"
     inkscape:window-maximized="1"
     inkscape:current-layer="svg8"
     inkscape:document-rotation="0" /><path
     d="m 14.58918,16.795769 c -2.280141,-2.280141 -2.280141,-5.990199 0,-8.2703397 0.338645,-0.3387024 0.887808,-0.3387024 1.22651,0 0.338702,0.3387024 0.338702,0.8878073 0,1.2265096 -1.603777,1.6038351 -1.603777,4.2134851 0,5.8173201 0.338702,0.338703 0.338702,0.887808 0,1.22651 -0.169351,0.169351 -0.391375,0.254056 -0.613226,0.254056 -0.221966,-5.8e-5 -0.443875,-0.0847 -0.613284,-0.254056 z M 9.8869527,20.3814 c 0.2257823,0.225783 0.5216993,0.338703 0.8176733,0.338703 0.295974,0 0.591833,-0.11292 0.817731,-0.338703 0.451564,-0.451622 0.451564,-1.183781 0,-1.635346 -3.3555128,-3.355512 -3.3555128,-8.8152816 0,-12.170852 0.451564,-0.4516225 0.451564,-1.1837819 0,-1.6353465 -0.451623,-0.4516225 -1.18384,-0.4516225 -1.6354043,0 -4.2572542,4.2572545 -4.2572542,11.1842905 0,15.4415445 z m -3.7960338,4.939747 c 0.3699245,0 0.739849,-0.141135 1.0221203,-0.423349 0.5644847,-0.564484 0.5644847,-1.479698 0,-2.044182 -5.6203897,-5.62039 -5.6203897,-14.7654701 0,-20.3859757 0.5644847,-0.5644847 0.5644847,-1.47969812 0,-2.04418282 -0.5645425,-0.56454252 -1.4797559,-0.5644847 -2.0442406,0 C 1.8001297,3.6921841 0,8.0381326 0,12.660686 c 0,4.622611 1.8001297,8.968501 5.0687986,12.23717 0.282329,0.282156 0.6522536,0.423291 1.0221203,0.423291 z M 34.18431,16.795769 c 0.169293,0.169351 0.391318,0.254056 0.613226,0.254056 0.221908,0 0.443933,-0.08465 0.613284,-0.254056 2.280083,-2.280141 2.280083,-5.990199 0,-8.2703397 -0.338703,-0.3387024 -0.887808,-0.3386446 -1.22651,0 -0.338702,0.3387024 -0.338702,0.8878073 0,1.2265096 1.603777,1.6038351 1.603777,4.2134851 0,5.8173201 -0.338702,0.338703 -0.338702,0.887808 0,1.22651 z m 4.293507,3.585631 c 0.225782,0.225783 0.521641,0.338703 0.817673,0.338703 0.295974,0 0.591891,-0.11292 0.817673,-0.338703 4.257196,-4.257196 4.257196,-11.18429 0,-15.4415445 -0.451623,-0.4516225 -1.183782,-0.4516225 -1.635346,0 -0.451681,0.4515646 -0.451681,1.1837819 0,1.6353465 3.355454,3.3555126 3.355454,8.81534 0,12.170852 -0.451681,0.451565 -0.451681,1.183724 0,1.635346 z m 4.409202,2.472158 c -0.564485,0.564484 -0.564485,1.479698 0,2.044183 0.282271,0.282213 0.652195,0.423349 1.022062,0.423349 0.369925,0 0.739849,-0.141136 1.02212,-0.423349 C 48.19987,21.629072 50,17.283181 50,12.66057 50,8.038017 48.199928,3.6920685 44.931201,0.42334184 c -0.564426,-0.56442688 -1.47964,-0.5644847 -2.044182,0 -0.564485,0.5644847 -0.564485,1.47969806 0,2.04418276 5.620332,5.6205635 5.620332,14.7656434 0,20.3860334 z m 2.698402,47.744606 c 0.204447,0.605016 -0.120321,1.261259 -0.725337,1.465706 -0.122691,0.04146 -0.24758,0.06117 -0.370329,0.06117 -0.482382,0 -0.932385,-0.304184 -1.095377,-0.786508 L 39.455185,59.680823 25.485475,66.14236 c -0.154029,0.07123 -0.319737,0.106849 -0.485446,0.106849 -0.165767,0 -0.331475,-0.03562 -0.485447,-0.106849 L 10.544757,59.680823 6.6055638,71.338534 C 6.4010588,71.943549 5.7448735,72.268375 5.1398578,72.06387 4.5348422,71.859423 4.2100741,71.203238 4.4144635,70.598164 L 22.222646,17.896523 c -0.753089,-0.40132 -1.42107,-0.964186 -1.940745,-1.646448 -0.791597,-1.039176 -1.209973,-2.280372 -1.209973,-3.589563 0,-2.480888 1.532082,-4.6102952 3.699592,-5.4928988 l 1.853612,-3.2106769 c 0.206182,-0.3570888 0.543612,-0.3570888 0.749794,0 l 1.853612,3.2106769 c 2.16751,0.8826036 3.699592,3.0120108 3.699592,5.4928988 0,1.309133 -0.418434,2.550387 -1.209973,3.589563 -0.519676,0.682204 -1.187656,1.24507 -1.940745,1.646448 z m -10.88982,-25.002979 -0.88983,-2.633356 -8.8058,-4.073043 -8.805799,4.073043 -0.889831,2.633356 9.695688,4.48454 z m -15.376209,-11.881989 5.680637,2.627458 5.680637,-2.627516 -2.377335,-7.035446 -3.303302,-1.527919 -3.303302,1.527919 z m 5.19519,-10.887044 c 0.308001,-0.142466 0.662951,-0.142466 0.970951,0 l 1.797239,0.831318 -2.282743,-6.755603 -2.282743,6.755603 z m 3.240049,14.788597 5.030638,2.326859 -1.359955,-4.024707 z m -9.179887,-1.697848 -1.359955,4.024707 5.030696,-2.326917 z m 4.404692,-20.259873 0.925043,-2.737603 c 0.158828,-0.469893 0.59958,-0.78622 1.09555,-0.78622 0.496027,0 0.936722,0.316327 1.09555,0.78622 l 0.925043,2.737603 c 0.973263,-0.660984 1.594757,-1.778968 1.594757,-2.9964 0,-1.993476 -1.621817,-3.6152923 -3.61535,-3.6152923 -1.993534,0 -3.61535,1.6218163 -3.61535,3.6152923 0,1.217432 0.621494,2.335358 1.594757,2.9964 z M 11.712349,56.225687 22.245485,51.353762 14.559808,47.79889 Z M 37.097393,58.22327 25.000029,52.627856 12.902664,58.22327 25.000029,63.818739 Z m 1.190316,-1.997583 -2.84746,-8.426797 -7.685676,3.554872 z"
     id="path2"
     style="stroke-width:0.0578188" /></svg>
