<?xml version="1.0" encoding="UTF-8" standalone="no"?>
<svg
   xmlns:dc="http://purl.org/dc/elements/1.1/"
   xmlns:cc="http://creativecommons.org/ns#"
   xmlns:rdf="http://www.w3.org/1999/02/22-rdf-syntax-ns#"
   xmlns:svg="http://www.w3.org/2000/svg"
   xmlns="http://www.w3.org/2000/svg"
   xmlns:sodipodi="http://sodipodi.sourceforge.net/DTD/sodipodi-0.dtd"
   xmlns:inkscape="http://www.inkscape.org/namespaces/inkscape"
   width="50"
   height="50"
   viewBox="0 0 13.229164 13.229069"
   version="1.1"
   id="svg8"
   sodipodi:docname="nrfconnectforcloud.svg"
   inkscape:version="1.0.2 (e86c870879, 2021-01-15, custom)">
  <metadata
     id="metadata22">
    <rdf:RDF>
      <cc:Work
         rdf:about="">
        <dc:format>image/svg+xml</dc:format>
        <dc:type
           rdf:resource="http://purl.org/dc/dcmitype/StillImage" />
        <dc:title></dc:title>
      </cc:Work>
    </rdf:RDF>
  </metadata>
  <defs
     id="defs20" />
  <sodipodi:namedview
     pagecolor="#ffffff"
     bordercolor="#666666"
     borderopacity="1"
     objecttolerance="10"
     gridtolerance="10"
     guidetolerance="10"
     inkscape:pageopacity="0"
     inkscape:pageshadow="2"
     inkscape:window-width="1920"
     inkscape:window-height="1171"
     id="namedview18"
     showgrid="false"
     fit-margin-top="0"
     fit-margin-left="0"
     fit-margin-right="0"
     fit-margin-bottom="0"
     inkscape:zoom="1.8688854"
     inkscape:cx="407.64485"
     inkscape:cy="51.182049"
     inkscape:window-x="0"
     inkscape:window-y="0"
     inkscape:window-maximized="1"
     inkscape:current-layer="svg8" />
  <g
     id="layer1"
     transform="matrix(0.33490033,0,0,0.33490033,-9.8413811,-26.26738)"
     display="inline">
    <g
       id="g47"
       transform="matrix(0.26458,0,0,0.26458,29.386,78.433)"
       opacity="1">
      <g
         id="g14">
        <path
           id="path12"
           d="M 149.3,9.3 C 149.3,4.2 145.1,0 140,0 H 9.3 C 4.2,0 0,4.2 0,9.3 V 140 c 0,5.1 4.2,9.3 9.3,9.3 H 140 c 5.1,0 9.3,-4.2 9.3,-9.3 z"
           fill="#00a9ce" />
      </g>
      <g
         id="g24">
        <g
           id="g18">
          <path
             id="path16"
             d="m 63.6,93 c -0.7,0.3 -1.5,0.4 -2.4,0.3 H 61 c -0.2,0 -0.3,-0.1 -0.5,-0.1 -0.1,0 -0.2,0 -0.3,-0.1 C 60,93 59.8,93 59.6,92.9 c 0,0 -0.1,0 -0.1,-0.1 C 59.2,92.7 59,92.6 58.7,92.4 58.4,92.3 58.2,92.1 58,91.9 L 57.9,91.8 C 57.7,91.7 57.6,91.5 57.4,91.4 L 57.2,91.2 C 57.1,91.1 57,90.9 56.8,90.8 L 56.7,90.7 C 56.1,90 55.8,89.2 55.7,88.4 55.4,86.7 55.6,84.9 59.8,77.3 64,69.8 65.4,68.7 67,68 c 0.7,-0.3 1.5,-0.4 2.4,-0.3 h 0.1 c 0.2,0 0.4,0.1 0.6,0.1 0.1,0 0.2,0 0.3,0.1 0.2,0.1 0.4,0.1 0.6,0.2 0.1,0 0.1,0 0.2,0.1 0.3,0.1 0.5,0.2 0.8,0.4 0.3,0.2 0.5,0.3 0.8,0.5 l 0.1,0.1 c 0.2,0.1 0.3,0.3 0.5,0.4 l 0.2,0.2 c 0.2,0.2 0.3,0.3 0.4,0.5 l 0.1,0.1 c 0.5,0.7 0.9,1.5 1,2.2 0.1,0.6 0.1,1.2 0,2 -0.1,0.7 0.2,1.3 0.8,1.7 1.5,0.8 3.4,1.9 4.9,2.7 1,0.5 2.2,-0.1 2.4,-1.2 0.9,-6.6 -2.3,-11.8 -7.8,-14.9 -4.3,-2.4 -7.9,-2.7 -11.8,-1.6 -5.6,1.6 -8,6 -11.3,11.9 -3.3,5.9 -5.7,10.3 -4.1,15.9 1.1,3.9 3.3,6.8 7.6,9.2 5.5,3.1 11.5,3 16.6,-1.1 0.9,-0.7 0.8,-2.1 -0.2,-2.7 -1.5,-0.8 -3.4,-1.9 -4.8,-2.7 -0.6,-0.3 -1.3,-0.3 -1.8,0.2 -1,0.5 -1.5,0.8 -2,1 z"
             class="st1"
             fill="#fff" />
        </g>
        <g
           id="g22">
          <path
             id="path20"
             d="m 84.1,61 c 0.7,-0.3 1.5,-0.4 2.4,-0.3 h 0.2 c 0.2,0 0.3,0.1 0.5,0.1 0.1,0 0.2,0 0.3,0.1 0.2,0.1 0.4,0.1 0.6,0.2 0,0 0.1,0 0.1,0.1 0.3,0.1 0.5,0.2 0.8,0.4 0.3,0.1 0.5,0.3 0.7,0.5 l 0.1,0.1 c 0.2,0.1 0.3,0.3 0.5,0.4 l 0.2,0.2 c 0.1,0.1 0.2,0.3 0.4,0.4 l 0.1,0.1 c 0.6,0.7 0.9,1.5 1,2.3 0.3,1.7 0.1,3.5 -4.1,11.1 -4.2,7.5 -5.6,8.6 -7.2,9.3 -0.7,0.3 -1.5,0.4 -2.4,0.3 h -0.1 c -0.2,0 -0.4,-0.1 -0.6,-0.1 -0.1,0 -0.2,0 -0.3,-0.1 -0.2,-0.1 -0.4,-0.1 -0.6,-0.2 -0.1,0 -0.1,0 -0.2,-0.1 C 76.2,85.7 76,85.6 75.7,85.4 75.4,85.2 75.2,85.1 74.9,84.9 L 74.8,84.8 C 74.6,84.7 74.5,84.5 74.3,84.4 L 74.1,84.2 C 73.9,84 73.8,83.9 73.7,83.7 l -0.1,-0.1 c -0.5,-0.7 -0.9,-1.5 -1,-2.2 -0.1,-0.6 -0.1,-1.2 0,-2 C 72.7,78.7 72.4,78 71.8,77.7 70.3,76.9 68.4,75.8 67,75 c -1,-0.5 -2.2,0.1 -2.4,1.2 -0.9,6.6 2.3,11.8 7.8,14.8 4.3,2.4 7.9,2.7 11.8,1.6 5.6,-1.6 8,-6 11.3,-11.9 3.3,-5.9 5.7,-10.3 4.1,-15.9 -1.1,-3.9 -3.3,-6.8 -7.6,-9.2 -5.5,-3.1 -11.5,-3 -16.6,1.1 -0.9,0.7 -0.8,2.1 0.2,2.7 1.5,0.8 3.4,1.9 4.8,2.7 0.6,0.3 1.3,0.3 1.8,-0.2 1,-0.4 1.4,-0.7 1.9,-0.9 z"
             class="st1"
             fill="#fff" />
        </g>
      </g>
      <g
         id="g28">
        <path
           id="path26"
           d="M 109.6,114.7 H 42.3 C 26.7,114 14.5,100.6 14.5,84.2 14.5,67.4 27.4,53.7 43.3,53.7 h 1.3 c 6.8,-13.6 19.9,-22 34.5,-22 17.7,0 33,12.5 37.7,30.5 10.8,3.3 18.2,13.7 18.2,25.7 -0.1,14.7 -11.5,26.8 -25.4,26.8 z M 42.4,109 h 67.2 c 10.8,0 19.6,-9.5 19.6,-21.1 C 129.2,78 123,69.6 114.1,67.4 112.8,67.1 111.7,66 111.4,64.7 107.7,48.6 94.4,37.4 79,37.4 66.2,37.4 54.7,45 49.1,57.3 48.5,58.7 47,59.6 45.4,59.4 44.7,59.3 44,59.3 43.2,59.3 c -12.8,0 -23.1,11.2 -23.1,24.9 0,13.3 9.8,24.2 22.3,24.8 z"
           class="st1"
           fill="#fff" />
      </g>
    </g>
  </g>
  <style
     id="style10"
     type="text/css">.st1{fill:#fff}</style>
</svg>
