<?xml version="1.0" encoding="UTF-8" standalone="no"?>
<svg
   xmlns:dc="http://purl.org/dc/elements/1.1/"
   xmlns:cc="http://creativecommons.org/ns#"
   xmlns:rdf="http://www.w3.org/1999/02/22-rdf-syntax-ns#"
   xmlns:svg="http://www.w3.org/2000/svg"
   xmlns="http://www.w3.org/2000/svg"
   xmlns:sodipodi="http://sodipodi.sourceforge.net/DTD/sodipodi-0.dtd"
   xmlns:inkscape="http://www.inkscape.org/namespaces/inkscape"
   version="1.1"
   x="0px"
   y="0px"
   viewBox="0 0 50 49.887955"
   xml:space="preserve"
   id="svg42"
   sodipodi:docname="satellite.svg"
   width="50"
   height="49.887955"
   inkscape:version="1.0.2 (e86c870879, 2021-01-15, custom)"><metadata
     id="metadata48"><rdf:RDF><cc:Work
         rdf:about=""><dc:format>image/svg+xml</dc:format><dc:type
           rdf:resource="http://purl.org/dc/dcmitype/StillImage" /><dc:title></dc:title></cc:Work></rdf:RDF></metadata><defs
     id="defs46" /><sodipodi:namedview
     pagecolor="#ffffff"
     bordercolor="#666666"
     borderopacity="1"
     objecttolerance="10"
     gridtolerance="10"
     guidetolerance="10"
     inkscape:pageopacity="0"
     inkscape:pageshadow="2"
     inkscape:window-width="1920"
     inkscape:window-height="1171"
     id="namedview44"
     showgrid="false"
     fit-margin-top="0"
     fit-margin-left="0"
     fit-margin-right="0"
     fit-margin-bottom="0"
     inkscape:zoom="5.864"
     inkscape:cx="42.6"
     inkscape:cy="59.05"
     inkscape:window-x="0"
     inkscape:window-y="0"
     inkscape:window-maximized="1"
     inkscape:current-layer="svg42"
     inkscape:document-rotation="0" /><style
     type="text/css"
     id="style16">
	.st0{fill-rule:evenodd;clip-rule:evenodd;}
</style><g
     id="g36"
     transform="matrix(0.56022409,0,0,0.56022409,-4.1456583,-1.9327731)"><g
       id="g22"><path
         d="M 42.2,92.5 C 23,92.5 7.4,76.9 7.4,57.7 h 4.2 c 0,16.9 13.7,30.6 30.6,30.6 z"
         id="path18" /><path
         d="m 42.2,79.7 c -11.6,0 -21,-9.4 -21,-21 h 4.2 c 0,9.2 7.5,16.8 16.8,16.8 z"
         id="path20" /></g><path
       class="st0"
       d="M 45.2,3.6 C 45,3.4 44.8,3.4 44.6,3.6 L 34,14.2 c -0.2,0.2 -0.2,0.4 0,0.6 l 15.3,15.3 c 0.2,0.2 0.4,0.2 0.6,0 L 60.5,19.5 c 0.2,-0.2 0.2,-0.4 0,-0.6 z"
       id="path24" /><path
       class="st0"
       d="m 66.2,47.8 v 0 L 81,33.1 c 0.3,-0.3 0.3,-0.8 0,-1.2 L 68.3,19.3 C 68,19 67.5,19 67.1,19.3 L 52.6,33.9 c 0,0 -0.1,0.1 -0.1,0.1 l -0.1,0.1 v 0 c -3.6,3.8 -3.6,9.9 0.2,13.6 3.8,3.7 9.8,3.8 13.6,0.1 z"
       id="path26" /><path
       class="st0"
       d="m 70,50.5 c -0.2,0.2 -0.2,0.4 0,0.6 l 15.3,15.3 c 0.2,0.2 0.4,0.2 0.6,0 L 96.5,55.8 c 0.2,-0.2 0.2,-0.4 0,-0.6 L 81.2,39.9 c -0.2,-0.2 -0.4,-0.2 -0.6,0 z"
       id="path28" /><polygon
       points="50,21.4 52.2,19.2 83,50.8 80.8,53 "
       id="polygon30" /><g
       id="g34"><path
         class="st0"
         d="m 53.8,46.5 c -5.2,-5.2 -13.6,-5.2 -18.7,0 l -1.4,1.4 c -0.3,0.3 -0.3,0.8 0,1.2 l 7.7,7.7 -2,2 c -1.2,-0.5 -2.7,-0.2 -3.7,0.8 -1.4,1.4 -1.4,3.6 0,4.9 1.4,1.4 3.6,1.4 4.9,0 1,-1 1.3,-2.4 0.8,-3.7 l 2,-2 7.7,7.7 c 0.3,0.3 0.8,0.3 1.2,0 l 1.4,-1.4 v 0 C 59,60 59,51.7 53.8,46.5 Z"
         id="path32" /></g></g></svg>
