<?xml version="1.0" encoding="UTF-8" standalone="no"?>
<svg
   xmlns:dc="http://purl.org/dc/elements/1.1/"
   xmlns:cc="http://creativecommons.org/ns#"
   xmlns:rdf="http://www.w3.org/1999/02/22-rdf-syntax-ns#"
   xmlns:svg="http://www.w3.org/2000/svg"
   xmlns="http://www.w3.org/2000/svg"
   xmlns:sodipodi="http://sodipodi.sourceforge.net/DTD/sodipodi-0.dtd"
   xmlns:inkscape="http://www.inkscape.org/namespaces/inkscape"
   aria-hidden="true"
   role="presentation"
   data-slug-id="msazure-logo"
   viewBox="0 0 505.14899 71.998001"
   version="1.1"
   id="svg22"
   sodipodi:docname="azure.svg"
   inkscape:version="1.0.2 (e86c870879, 2021-01-15, custom)"
   width="505.14899"
   height="71.998001">
  <metadata
     id="metadata28">
    <rdf:RDF>
      <cc:Work
         rdf:about="">
        <dc:format>image/svg+xml</dc:format>
        <dc:type
           rdf:resource="http://purl.org/dc/dcmitype/StillImage" />
        <dc:title></dc:title>
      </cc:Work>
    </rdf:RDF>
  </metadata>
  <defs
     id="defs26" />
  <sodipodi:namedview
     pagecolor="#ffffff"
     bordercolor="#666666"
     borderopacity="1"
     objecttolerance="10"
     gridtolerance="10"
     guidetolerance="10"
     inkscape:pageopacity="0"
     inkscape:pageshadow="2"
     inkscape:window-width="1642"
     inkscape:window-height="1043"
     id="namedview24"
     showgrid="false"
     inkscape:zoom="1.641997"
     inkscape:cx="317.46753"
     inkscape:cy="56.961847"
     inkscape:window-x="0"
     inkscape:window-y="0"
     inkscape:window-maximized="0"
     inkscape:current-layer="svg22"
     fit-margin-top="0"
     fit-margin-left="0"
     fit-margin-right="0"
     fit-margin-bottom="0" />
  <path
     fill-rule="evenodd"
     clip-rule="evenodd"
     d="m 371.243,22.4125 -6.387,18.195 h 12.954 l -6.356,-18.195 z m 4.458,-8.014 16.268,43.201 h -8.254 l -3.826,-10.725 h -17.021 l -3.675,10.725 h -8.194 l 16.267,-43.201 z"
     fill="white"
     id="path2"
     style="fill:#333333" />
  <path
     fill-rule="evenodd"
     clip-rule="evenodd"
     d="m 395.684,26.6293 h 24.733 v 2.923 l -16.238,22.263 h 16.328 v 5.784 h -25.968 v -3.465 l 15.997,-21.721 h -14.852 z"
     fill="white"
     id="path4"
     style="fill:#333333" />
  <path
     fill-rule="evenodd"
     clip-rule="evenodd"
     d="m 452.592,26.6293 v 30.97 h -7.351 v -4.068 h -0.12 c -0.964,1.407 -2.255,2.506 -3.871,3.299 -1.617,0.793 -3.429,1.191 -5.437,1.191 -3.596,0 -6.332,-1.02 -8.21,-3.059 -1.878,-2.038 -2.817,-5.206 -2.817,-9.504 v -18.829 h 7.381 v 17.955 c 0,2.611 0.517,4.574 1.552,5.89 1.034,1.315 2.595,1.973 4.685,1.973 2.068,0 3.724,-0.728 4.97,-2.184 1.245,-1.456 1.867,-3.36 1.867,-5.709 v -17.925 z"
     fill="white"
     id="path6"
     style="fill:#333333" />
  <path
     fill-rule="evenodd"
     clip-rule="evenodd"
     d="m 473.544,26.1176 c 0.582,0 1.104,0.04 1.566,0.12 0.462,0.081 0.854,0.181 1.175,0.302 v 7.381 c -0.382,-0.282 -0.939,-0.547 -1.672,-0.799 -0.733,-0.251 -1.622,-0.376 -2.666,-0.376 -1.788,0 -3.299,0.753 -4.534,2.259 -1.235,1.507 -1.852,3.826 -1.852,6.959 v 15.635 h -7.291 v -30.969 h 7.291 v 4.881 h 0.12 c 0.663,-1.688 1.667,-3.008 3.012,-3.962 1.346,-0.953 2.962,-1.431 4.851,-1.431 z"
     fill="white"
     id="path8"
     style="fill:#333333" />
  <path
     fill-rule="evenodd"
     clip-rule="evenodd"
     d="m 497.979,38.9809 c 0,-2.41 -0.558,-4.247 -1.672,-5.513 -1.115,-1.265 -2.686,-1.897 -4.715,-1.897 -1.747,0 -3.313,0.628 -4.699,1.883 -1.38599,1.255 -2.30999,3.097 -2.77099,5.527 z m 4.67,10.815 v 5.996 c -1.205,0.763 -2.782,1.38 -4.731,1.852 -1.948,0.472 -4.026,0.708 -6.235,0.708 -4.721,0 -8.391,-1.395 -11.012,-4.187 -2.62,-2.791 -3.93,-6.678 -3.93,-11.659 0,-4.799 1.4,-8.752 4.202,-11.854 2.802,-3.104 6.351,-4.654 10.649,-4.654 4.279,0 7.607,1.309 9.987,3.93 2.379,2.621 3.57,6.241 3.57,10.861 v 3.525 h -21.208 c 0.32,3.113 1.32,5.286 2.997,6.521 1.677,1.236 3.841,1.853 6.492,1.853 1.747,0 3.414,-0.266 5.001,-0.798 1.586,-0.532 2.992,-1.23 4.218,-2.094 z"
     fill="white"
     id="path10"
     style="fill:#333333" />
  <path
     fill-rule="evenodd"
     clip-rule="evenodd"
     d="m 322.9477,32.5952 h -10.858 v 25.004 h -7.38 v -25.004 h -5.182 v -5.965 h 5.182 v -4.308 c 0,-3.254 1.058,-5.92 3.178,-7.998 2.118,-2.08 4.834,-3.119 8.148,-3.119 0.884,0 1.667,0.045 2.35,0.136 0.683,0.091 1.286,0.226 1.808,0.406 v 6.297 c -0.242,-0.14 -0.663,-0.311 -1.266,-0.512 -0.602,-0.201 -1.295,-0.301 -2.078,-0.301 -1.527,0 -2.701,0.476 -3.525,1.43 -0.824,0.955 -1.235,2.366 -1.235,4.233 v 3.736 h 10.858 v -6.96 l 7.32,-2.228 v 9.188 h 7.382 v 5.965 h -7.382 v 14.489 c 0,1.909 0.347,3.255 1.04,4.037 0.693,0.784 1.782,1.175 3.268,1.175 0.422,0 0.929,-0.099 1.522,-0.301 0.592,-0.2 1.109,-0.441 1.552,-0.722 v 6.024 c -0.463,0.262 -1.231,0.502 -2.306,0.724 -1.074,0.22 -2.133,0.331 -3.178,0.331 -3.073,0 -5.377,-0.818 -6.913,-2.455 -1.537,-1.637 -2.305,-4.102 -2.305,-7.397 z m -48.407,9.73 c 0,3.234 0.733,5.704 2.199,7.412 1.465,1.707 3.564,2.559 6.296,2.559 2.651,0 4.67,-0.852 6.055,-2.559 1.386,-1.708 2.079,-4.239 2.079,-7.593 0,-3.333 -0.718,-5.849 -2.154,-7.546 -1.436,-1.697 -3.45,-2.545 -6.04,-2.545 -2.672,0 -4.745,0.888 -6.221,2.666 -1.477,1.776 -2.214,4.313 -2.214,7.606 z m -7.592,0.241 c 0,-5.121 1.446,-9.178 4.338,-12.171 2.892,-2.992 6.909,-4.488 12.05,-4.488 4.84,0 8.621,1.441 11.343,4.323 2.721,2.883 4.081,6.773 4.081,11.674 0,5.021 -1.446,9.017 -4.337,11.989 -2.893,2.973 -6.829,4.459 -11.81,4.459 -4.8,0 -8.611,-1.41 -11.432,-4.233 -2.822,-2.821 -4.233,-6.672 -4.233,-11.553 z m -16.418,-7.802 c 0,1.044 0.332,1.862 0.995,2.455 0.662,0.592 2.128,1.34 4.398,2.244 2.912,1.165 4.956,2.476 6.13,3.932 1.175,1.456 1.763,3.218 1.763,5.287 0,2.912 -1.12,5.252 -3.359,7.018 -2.24,1.769 -5.267,2.652 -9.083,2.652 -1.285,0 -2.707,-0.155 -4.263,-0.467 -1.557,-0.311 -2.877,-0.708 -3.962,-1.19 v -7.169 c 1.326,0.923 2.752,1.656 4.278,2.198 1.527,0.543 2.912,0.814 4.158,0.814 1.646,0 2.862,-0.231 3.645,-0.693 0.783,-0.462 1.175,-1.235 1.175,-2.319 0,-1.005 -0.407,-1.854 -1.22,-2.546 -0.813,-0.694 -2.355,-1.492 -4.625,-2.396 -2.691,-1.124 -4.598,-2.389 -5.723,-3.795 -1.125,-1.406 -1.688,-3.193 -1.688,-5.363 0,-2.791 1.11,-5.086 3.329,-6.884 2.219,-1.797 5.097,-2.695 8.632,-2.695 1.084,0 2.299,0.12 3.645,0.36 1.345,0.242 2.47,0.554 3.374,0.935 v 6.929 c -0.964,-0.643 -2.089,-1.195 -3.374,-1.658 -1.286,-0.462 -2.561,-0.692 -3.826,-0.692 -1.386,0 -2.466,0.271 -3.239,0.813 -0.773,0.542 -1.16,1.286 -1.16,2.23 z m -35.065,7.561 c 0,3.234 0.732,5.704 2.199,7.412 1.466,1.707 3.565,2.559 6.296,2.559 2.652,0 4.67,-0.852 6.055,-2.559 1.386,-1.708 2.079,-4.239 2.079,-7.593 0,-3.333 -0.718,-5.849 -2.154,-7.546 -1.436,-1.697 -3.45,-2.545 -6.04,-2.545 -2.671,0 -4.745,0.888 -6.221,2.666 -1.477,1.776 -2.214,4.313 -2.214,7.606 z m -7.592,0.241 c 0,-5.121 1.446,-9.178 4.338,-12.171 2.892,-2.992 6.909,-4.488 12.05,-4.488 4.841,0 8.621,1.441 11.343,4.323 2.721,2.883 4.082,6.773 4.082,11.674 0,5.021 -1.447,9.017 -4.338,11.989 -2.892,2.973 -6.829,4.459 -11.81,4.459 -4.8,0 -8.611,-1.41 -11.432,-4.233 -2.822,-2.821 -4.233,-6.672 -4.233,-11.553 z m -3.136,-16.449 c 0.582,0 1.105,0.041 1.566,0.122 0.462,0.08 0.854,0.179 1.176,0.3 v 7.381 c -0.382,-0.281 -0.94,-0.547 -1.672,-0.798 -0.734,-0.252 -1.623,-0.377 -2.666,-0.377 -1.788,0 -3.299,0.753 -4.534,2.259 -1.235,1.507 -1.853,3.826 -1.853,6.959 v 15.636 h -7.291 v -30.969 h 7.291 v 4.88 h 0.12 c 0.663,-1.687 1.667,-3.007 3.013,-3.962 1.345,-0.953 2.962,-1.431 4.85,-1.431 z m -27.956,26.179 c 1.084,0 2.279,-0.25 3.584,-0.752 1.306,-0.503 2.511,-1.165 3.616,-1.989 v 6.778 c -1.165,0.663 -2.486,1.165 -3.962,1.506 -1.475,0.342 -3.098,0.513 -4.865,0.513 -4.56,0 -8.265,-1.441 -11.116,-4.323 -2.853,-2.882 -4.278,-6.562 -4.278,-11.04 0,-4.982 1.456,-9.083 4.368,-12.308 2.912,-3.223 7.039,-4.834 12.382,-4.834 1.366,0 2.746,0.176 4.142,0.527 1.396,0.351 2.505,0.757 3.329,1.219 v 6.99 c -1.125,-0.824 -2.275,-1.461 -3.45,-1.914 -1.174,-0.451 -2.375,-0.677 -3.6,-0.677 -2.872,0 -5.191,0.934 -6.959,2.802 -1.767,1.867 -2.651,4.388 -2.651,7.561 0,3.133 0.848,5.574 2.546,7.321 1.697,1.747 4.002,2.62 6.914,2.62 z m -29.403,5.303 h 7.29 v -30.969 h -7.29 z m -0.753,-39.916 c 0,-1.205 0.437,-2.215 1.311,-3.028 0.873,-0.814 1.912,-1.22 3.117,-1.22 1.285,0 2.351,0.417 3.194,1.25 0.844,0.833 1.265,1.833 1.265,2.998 0,1.184 -0.432,2.179 -1.295,2.981 -0.864,0.804 -1.918,1.205 -3.164,1.205 -1.245,0 -2.294,-0.406 -3.147,-1.219 -0.855,-0.814 -1.281,-1.803 -1.281,-2.967 z m -6.273,-3.284 v 43.2 h -7.501 v -33.861 h -0.121 l -13.406,33.861 h -4.97 l -13.738,-33.861 h -0.09 v 33.861 h -6.929 v -43.2 h 10.755 l 12.412,32.023 h 0.18 l 13.105,-32.023 z"
     fill="white"
     id="path12"
     style="fill:#333333" />
  <path
     fill-rule="evenodd"
     clip-rule="evenodd"
     d="M 0.00499725,34.225012 H 34.223997 V 0.00601196 H 0.00499725 Z"
     fill="#f25022"
     id="path14" />
  <path
     fill-rule="evenodd"
     clip-rule="evenodd"
     d="M 37.779,34.219 H 71.998 V 0 H 37.779 Z"
     fill="#7fba00"
     id="path16" />
  <path
     fill-rule="evenodd"
     clip-rule="evenodd"
     d="M 0,71.998 H 34.219 V 37.779 H 0 Z"
     fill="#00a4ef"
     id="path18" />
  <path
     fill-rule="evenodd"
     clip-rule="evenodd"
     d="M 37.779,71.998 H 71.998 V 37.779 H 37.779 Z"
     fill="#ffb900"
     id="path20" />
</svg>
