<?xml version="1.0" encoding="UTF-8" standalone="no"?>
<svg
   xmlns:dc="http://purl.org/dc/elements/1.1/"
   xmlns:cc="http://creativecommons.org/ns#"
   xmlns:rdf="http://www.w3.org/1999/02/22-rdf-syntax-ns#"
   xmlns:svg="http://www.w3.org/2000/svg"
   xmlns="http://www.w3.org/2000/svg"
   xmlns:xlink="http://www.w3.org/1999/xlink"
   xmlns:sodipodi="http://sodipodi.sourceforge.net/DTD/sodipodi-0.dtd"
   xmlns:inkscape="http://www.inkscape.org/namespaces/inkscape"
   width="147.68556mm"
   height="147.68556mm"
   viewBox="0 0 147.68556 147.68556"
   version="1.1"
   id="svg8"
   inkscape:version="1.0.2 (e86c870879, 2021-01-15, custom)"
   sodipodi:docname="thingy91.svg">
  <defs
     id="defs2">
    <linearGradient
       inkscape:collect="always"
       id="linearGradient883">
      <stop
         style="stop-color:#000000;stop-opacity:0.40885589"
         offset="0"
         id="stop879" />
      <stop
         style="stop-color:#000000;stop-opacity:0"
         offset="1"
         id="stop881" />
    </linearGradient>
    <linearGradient
       inkscape:collect="always"
       xlink:href="#linearGradient883"
       id="linearGradient885"
       x1="-39.342579"
       y1="55.319527"
       x2="-19.981594"
       y2="73.986839"
       gradientUnits="userSpaceOnUse"
       gradientTransform="matrix(3.7795276,0,0,3.7795276,639.41624,3.3286654)" />
  </defs>
  <sodipodi:namedview
     id="base"
     pagecolor="#ffffff"
     bordercolor="#666666"
     borderopacity="1.0"
     inkscape:pageopacity="0.0"
     inkscape:pageshadow="2"
     inkscape:zoom="0.49497475"
     inkscape:cx="859.66649"
     inkscape:cy="198.5444"
     inkscape:document-units="mm"
     inkscape:current-layer="layer1"
     inkscape:document-rotation="0"
     showgrid="false"
     fit-margin-top="0"
     fit-margin-left="0"
     fit-margin-right="0"
     fit-margin-bottom="0"
     inkscape:window-width="1920"
     inkscape:window-height="1171"
     inkscape:window-x="0"
     inkscape:window-y="0"
     inkscape:window-maximized="1" />
  <metadata
     id="metadata5">
    <rdf:RDF>
      <cc:Work
         rdf:about="">
        <dc:format>image/svg+xml</dc:format>
        <dc:type
           rdf:resource="http://purl.org/dc/dcmitype/StillImage" />
        <dc:title></dc:title>
      </cc:Work>
    </rdf:RDF>
  </metadata>
  <g
     inkscape:label="Layer 1"
     inkscape:groupmode="layer"
     id="layer1"
     transform="translate(-43.880962,-60.659412)">
    <polygon
       class="st0"
       points=""
       id="polygon1516"
       transform="matrix(0.72907402,0,0,0.72907402,236.1052,165.776)" />
    <g
       id="g2614"
       transform="translate(-68.716816,21.800802)">
      <path
         id="rect875"
         style="fill:#d2682d;fill-opacity:1;stroke-width:3.77953;stroke-linecap:round;stroke-linejoin:bevel"
         d="M 425.56641,146.86719 V 705.04883 H 983.74805 V 146.86719 Z m 100.46484,65.5039 a 34.959837,34.959837 0 0 1 34.95898,34.96094 34.959837,34.959837 0 0 1 -34.95898,34.95899 34.959837,34.959837 0 0 1 -34.95898,-34.95899 34.959837,34.959837 0 0 1 34.95898,-34.96094 z"
         transform="scale(0.26458333)" />
      <path
         id="path877"
         style="fill:url(#linearGradient885);fill-opacity:1;stroke-width:3.96631;stroke-linecap:round;stroke-linejoin:bevel"
         d="m 526.03125,196 a 51.331099,51.331099 0 0 0 -51.33008,51.33203 51.331099,51.331099 0 0 0 51.33008,51.33008 51.331099,51.331099 0 0 0 51.33203,-51.33008 A 51.331099,51.331099 0 0 0 526.03125,196 Z m -0.0586,8.60156 a 42.730062,42.730062 0 0 1 0.0586,0 42.730062,42.730062 0 0 1 42.73047,42.73047 42.730062,42.730062 0 0 1 -42.73047,42.73047 42.730062,42.730062 0 0 1 -42.73047,-42.73047 42.730062,42.730062 0 0 1 42.67188,-42.73047 z"
         transform="scale(0.26458333)" />
      <path
         id="path889"
         style="fill:#192944;fill-opacity:1;stroke-width:2.31634;stroke-linecap:round;stroke-linejoin:bevel"
         d="m 525.97266,204.60156 a 42.730062,42.730062 0 0 0 -42.67188,42.73047 42.730062,42.730062 0 0 0 42.73047,42.73047 42.730062,42.730062 0 0 0 42.73047,-42.73047 42.730062,42.730062 0 0 0 -42.73047,-42.73047 42.730062,42.730062 0 0 0 -0.0586,0 z m 0.0586,7.76953 a 34.959837,34.959837 0 0 1 34.95898,34.96094 34.959837,34.959837 0 0 1 -34.95898,34.95899 34.959837,34.959837 0 0 1 -34.95898,-34.95899 34.959837,34.959837 0 0 1 34.95898,-34.96094 z"
         transform="scale(0.26458333)" />
      <path
         class="st1"
         d="m 197.28256,82.476606 c 0,0 -0.068,0 -0.068,0.06797 -0.13595,0.06798 -0.20393,0.135949 -0.33988,0.135949 l -10.53601,6.049712 12.23537,7.069327 V 82.204709 c -0.40784,0 -0.88366,0.135949 -1.29151,0.271897 z"
         id="path1518"
         style="fill:#ffffff;fill-opacity:0.1;stroke-width:0.679743" />
      <path
         class="st2"
         d="m 175.73471,125.09649 11.14778,-6.45756 -12.23537,-7.06933 v 13.79879 c 0.33987,0.068 0.67974,-0.068 1.08759,-0.2719 z"
         id="path1520"
         style="fill:#000000;fill-opacity:0.1;stroke-width:0.679743" />
      <path
         class="st3"
         d="m 211.08134,117.89121 -25.08251,-14.47852 v 0 l -1.15557,-0.67974 -22.63544,-13.119043 c -0.13594,0.407846 -0.27189,0.815692 -0.27189,1.291512 0,0.06797 0,0.203923 0,0.271897 V 117.1435 c 0,0.81569 0.47582,1.56341 1.15556,1.97125 l 10.33209,6.04971 c 0.33987,0.20393 0.74772,0.2719 1.15557,0.2719 v -13.25499 -0.54379 l 23.45113,13.52688 c 0.068,0.068 0.13595,0.068 0.20392,0.068 0,0 0.068,0 0.068,0 0.67975,0.27189 1.22354,0.068 1.83531,-0.33987 l 3.94251,-2.24316 6.25364,-3.73858 c 0.33987,-0.20392 0.61176,-0.61177 0.74771,-1.01962 z"
         id="path1522"
         style="fill:#ffffff;fill-opacity:0.1;stroke-width:0.679743" />
      <path
         class="st4"
         d="m 211.21729,100.76169 v -9.856271 c 0,-1.291512 -0.67974,-2.447075 -1.76733,-3.058844 l -9.10856,-5.23402 c -0.54379,-0.271897 -1.15556,-0.407846 -1.76733,-0.407846 v 13.662833 l -20.46026,-11.895501 -2.31113,-1.291512 c -1.01961,-0.543794 -1.90328,-0.611769 -2.92289,-0.135949 0,0 -0.068,0 -0.068,0.06798 -0.13594,0.06797 -0.20392,0.135948 -0.33987,0.203923 l -3.60263,2.107203 -5.16605,2.990869 c 0,0 0,0 0,0 -0.67974,0.407846 -1.22354,1.019614 -1.56341,1.767331 0,0 22.63544,13.051074 22.63544,13.051074 l 1.15556,0.67974 v 0 l 25.08252,14.47852 c 0.13595,-0.47582 0.13595,-1.29151 0.13595,-1.29151 V 100.7617 Z"
         id="path1524"
         style="fill:#000000;fill-opacity:0.1;stroke-width:0.679743" />
      <g
         id="g2571"
         style="fill:#000000;fill-opacity:0.1">
        <path
           d="m 160.23657,164.79348 h -1.15556 l -0.61177,-3.94251 v 0 l -1.15556,3.05884 h -0.74772 l -1.15557,-3.05884 v 0 l -0.61176,3.94251 h -1.15557 l 1.08759,-6.11769 h 0.81569 l 1.35949,3.46669 v 0 l 1.35949,-3.46669 h 0.81569 z"
           id="path1530"
           style="fill:#000000;fill-opacity:0.1;stroke-width:0.679743" />
        <path
           d="m 155.20647,154.32544 h -2.78694 l -8.08895,-11.28374 v 0 11.35171 h -2.99086 v -16.51775 h 2.78694 l 8.02097,11.3517 v 0 -11.3517 h 2.99087 z"
           id="path1532"
           style="fill:#000000;fill-opacity:0.1;stroke-width:0.679743" />
        <path
           d="m 175.46281,146.10055 c 0,5.09807 -3.73858,8.63273 -8.63273,8.63273 -4.89415,0 -8.63274,-3.46669 -8.63274,-8.63273 0,-5.09808 3.73859,-8.63274 8.63274,-8.63274 4.89415,0 8.63273,3.53466 8.63273,8.63274 z m -13.93473,0 c 0,3.26276 2.24315,5.50591 5.302,5.50591 3.12681,0 5.30199,-2.24315 5.30199,-5.50591 0,-3.26277 -2.24315,-5.50592 -5.30199,-5.50592 -3.05885,0 -5.302,2.24315 -5.302,5.50592 z"
           id="path1534"
           style="fill:#000000;fill-opacity:0.1;stroke-width:0.679743" />
        <path
           d="m 182.87201,147.73193 h -1.15556 v 6.59351 h -2.99087 v -16.51776 h 6.04971 c 3.26277,0 5.302,2.03923 5.302,5.0301 0,2.44707 -1.42746,4.28238 -3.87454,4.7582 l 4.89415,6.72946 h -3.80656 z m -1.08759,-2.651 h 2.58302 c 1.76734,0 2.58303,-0.81569 2.58303,-2.24315 0,-1.35949 -0.81569,-2.24315 -2.58303,-2.24315 h -2.58302 z"
           id="path1536"
           style="fill:#000000;fill-opacity:0.1;stroke-width:0.679743" />
        <path
           d="m 207.61465,146.10055 c 0,5.16604 -3.60263,8.22489 -8.56476,8.22489 h -5.30199 v -16.51776 h 5.30199 c 4.96213,0 8.56476,3.12682 8.56476,8.29287 z m -10.80791,-5.50592 v 10.94386 h 2.3791 c 2.99087,0 5.16605,-1.90328 5.16605,-5.43794 0,-3.53467 -2.24315,-5.43795 -5.16605,-5.43795 z"
           id="path1538"
           style="fill:#000000;fill-opacity:0.1;stroke-width:0.679743" />
        <path
           d="m 213.86829,154.32544 h -3.05884 v -16.51776 h 3.05884 z"
           id="path1540"
           style="fill:#000000;fill-opacity:0.1;stroke-width:0.679743" />
        <path
           d="m 217.13105,146.10055 c 0,-5.23402 3.67062,-8.63274 8.90464,-8.63274 2.51505,0 4.41833,0.74772 5.91376,1.83531 l -1.76733,2.65099 c -1.01962,-0.67974 -2.3791,-1.35948 -4.14643,-1.35948 -3.19479,0 -5.57389,2.17518 -5.57389,5.50592 0,3.39871 2.3791,5.50591 5.57389,5.50591 1.76733,0 3.12681,-0.67974 4.14643,-1.35948 l 1.76733,2.651 c -1.49543,1.01961 -3.33074,1.8353 -5.91376,1.8353 -5.16605,-0.068 -8.90464,-3.46669 -8.90464,-8.63273 z"
           id="path1542"
           style="fill:#000000;fill-opacity:0.1;stroke-width:0.679743" />
        <path
           d="m 140.93187,164.31766 0.47582,-1.01962 c 0.47582,0.2719 1.08759,0.5438 1.63138,0.5438 0.5438,0 0.88367,-0.2719 0.88367,-0.61177 0,-0.33987 -0.20392,-0.5438 -0.61177,-0.81569 l -1.01961,-0.67975 c -0.67975,-0.47582 -0.95164,-0.95164 -0.95164,-1.63138 0,-0.95164 0.67974,-1.56341 1.8353,-1.56341 0.61177,0 1.22354,0.13595 1.76733,0.40785 l -0.47582,1.01961 c -0.47582,-0.20392 -0.88366,-0.40784 -1.29151,-0.40784 -0.47582,0 -0.61177,0.20392 -0.61177,0.47582 0,0.20392 0.13595,0.40784 0.47582,0.61177 l 1.08759,0.74771 c 0.67974,0.47582 1.01962,0.95164 1.01962,1.69936 0,1.15556 -0.8157,1.76733 -2.10721,1.76733 -0.81569,0.068 -1.56341,-0.13595 -2.1072,-0.54379"
           id="path1544"
           style="fill:#000000;fill-opacity:0.1;stroke-width:0.679743" />
        <path
           d="m 151.26396,163.77386 v 1.01962 h -3.67061 v -6.11769 h 3.60264 v 1.01962 h -2.51505 v 1.22353 h 2.31113 v 1.01962 h -2.31113 v 1.76733 h 2.58302 z"
           id="path1546"
           style="fill:#000000;fill-opacity:0.1;stroke-width:0.679743" />
        <path
           d="m 163.83921,164.79348 h -1.15557 v -6.11769 h 1.15557 z"
           id="path1548"
           style="fill:#000000;fill-opacity:0.1;stroke-width:0.679743" />
        <path
           d="m 166.15033,161.73463 c 0,-1.90328 1.35949,-3.19479 3.33074,-3.19479 0.95164,0 1.63139,0.2719 2.17518,0.67975 l -0.61177,0.95164 c -0.40784,-0.2719 -0.88366,-0.47582 -1.56341,-0.47582 -1.15556,0 -2.03922,0.81569 -2.03922,2.03922 0,1.22354 0.88366,2.03923 2.03922,2.03923 0.67975,0 1.15557,-0.27189 1.56341,-0.47582 l 0.61177,0.95164 c -0.54379,0.40785 -1.22354,0.67975 -2.17518,0.67975 -1.97125,0 -3.33074,-1.22354 -3.33074,-3.1948 z"
           id="path1552"
           style="fill:#000000;fill-opacity:0.1;stroke-width:0.679743" />
        <path
           d="m 179.88114,161.73463 c 0,1.90328 -1.35948,3.1948 -3.19479,3.1948 -1.83531,0 -3.19479,-1.29152 -3.19479,-3.1948 0,-1.90328 1.35948,-3.19479 3.19479,-3.19479 1.76733,0 3.19479,1.29151 3.19479,3.19479 z m -5.16605,0 c 0,1.22354 0.8157,2.03923 1.97126,2.03923 1.15556,0 1.97125,-0.81569 1.97125,-2.03923 0,-1.22353 -0.81569,-2.03922 -1.97125,-2.03922 -1.15556,0 -1.97126,0.81569 -1.97126,2.03922 z"
           id="path1554"
           style="fill:#000000;fill-opacity:0.1;stroke-width:0.679743" />
        <path
           d="m 187.35831,164.79348 h -1.01961 l -2.99087,-4.21441 v 0 4.21441 h -1.08759 v -6.11769 h 1.01962 l 2.99086,4.21441 v 0 -4.21441 h 1.08759 z"
           id="path1556"
           style="fill:#000000;fill-opacity:0.1;stroke-width:0.679743" />
        <path
           d="m 195.24333,161.73463 c 0,1.90328 -1.35948,3.05885 -3.19479,3.05885 h -1.97125 v -6.11769 h 1.97125 c 1.83531,0 3.19479,1.15556 3.19479,3.05884 z m -4.01048,-2.03922 v 4.07845 h 0.88366 c 1.08759,0 1.90328,-0.67974 1.90328,-2.03923 0,-1.29151 -0.81569,-2.03922 -1.90328,-2.03922 z"
           id="path1558"
           style="fill:#000000;fill-opacity:0.1;stroke-width:0.679743" />
        <path
           d="m 202.58456,162.3464 c 0,1.56341 -0.88367,2.51505 -2.51505,2.51505 -1.63139,0 -2.51505,-1.01961 -2.51505,-2.51505 v -3.67061 h 1.15556 v 3.60264 c 0,0.88366 0.5438,1.42746 1.35949,1.42746 0.81569,0 1.35948,-0.5438 1.35948,-1.42746 v -3.60264 h 1.15557 z"
           id="path1560"
           style="fill:#000000;fill-opacity:0.1;stroke-width:0.679743" />
        <path
           d="m 204.89568,161.73463 c 0,-1.90328 1.35949,-3.19479 3.33074,-3.19479 0.95164,0 1.63139,0.2719 2.17518,0.67975 l -0.61177,0.95164 c -0.40784,-0.2719 -0.88367,-0.47582 -1.56341,-0.47582 -1.15556,0 -2.03923,0.81569 -2.03923,2.03922 0,1.22354 0.88367,2.03923 2.03923,2.03923 0.67974,0 1.15557,-0.27189 1.56341,-0.47582 l 0.61177,0.95164 c -0.54379,0.40785 -1.22354,0.67975 -2.17518,0.67975 -1.90328,0 -3.33074,-1.29152 -3.33074,-3.1948 z"
           id="path1562"
           style="fill:#000000;fill-opacity:0.1;stroke-width:0.679743" />
        <path
           d="m 216.65523,159.69541 h -1.63138 v 5.03009 h -1.08759 v -5.03009 h -1.69935 v -1.01962 h 4.41832 z"
           id="path1564"
           style="fill:#000000;fill-opacity:0.1;stroke-width:0.679743" />
        <path
           d="m 224.81215,161.73463 c 0,1.90328 -1.35949,3.1948 -3.19479,3.1948 -1.83531,0 -3.19479,-1.29152 -3.19479,-3.1948 0,-1.90328 1.35948,-3.19479 3.19479,-3.19479 1.76733,0 3.19479,1.29151 3.19479,3.19479 z m -5.16605,0 c 0,1.22354 0.8157,2.03923 1.97126,2.03923 1.15556,0 1.97125,-0.81569 1.97125,-2.03923 0,-1.22353 -0.81569,-2.03922 -1.97125,-2.03922 -1.15556,0 -1.97126,0.81569 -1.97126,2.03922 z"
           id="path1566"
           style="fill:#000000;fill-opacity:0.1;stroke-width:0.679743" />
        <path
           d="m 228.61871,162.3464 h -0.40785 v 2.44708 h -1.08758 v -6.11769 h 2.24315 c 1.22354,0 1.97125,0.74772 1.97125,1.83531 0,0.88366 -0.54379,1.56341 -1.42746,1.76733 l 1.83531,2.51505 h -1.42746 z m -0.40785,-0.95164 h 0.95164 c 0.61177,0 0.95165,-0.27189 0.95165,-0.81569 0,-0.47582 -0.2719,-0.81569 -0.95165,-0.81569 h -0.95164 z"
           id="path1568"
           style="fill:#000000;fill-opacity:0.1;stroke-width:0.679743" />
      </g>
    </g>
  </g>
</svg>
